MMXI-Black.ufo
<glyph name="quotedbl" format="1">
  <advance width="896.0"/>
  <unicode hex="0022"/>
  <outline>
    <contour>
      <point x="832" y="1088" type="line"/>
      <point x="832" y="1472" type="line"/>
      <point x="512" y="1472" type="line"/>
      <point x="512" y="1024" type="line"/>
    </contour>
    <contour>
      <point x="384" y="1088" type="line"/>
      <point x="384" y="1472" type="line"/>
      <point x="64.0" y="1472.0" type="line"/>
      <point x="64.0" y="1024.0" type="line"/>
    </contour>
  </outline>
</glyph>
<glyph name="numbersign" format="1">
  <advance width="1568"/>
  <unicode hex="0023"/>
  <outline>
    <contour>
      <point x="976" y="1472" type="line"/>
      <point x="720" y="0" type="line"/>
      <point x="1120.0" y="0.0" type="line"/>
      <point x="1376.0" y="1472.0" type="line"/>
    </contour>
    <contour>
      <point x="352.0" y="1472.0" type="line"/>
      <point x="96.0" y="0.0" type="line"/>
      <point x="496.0" y="0.0" type="line"/>
      <point x="752.0" y="1472.0" type="line"/>
    </contour>
    <contour>
      <point x="1408.0" y="640.0" type="line"/>
      <point x="0.0" y="640.0" type="line"/>
      <point x="0.0" y="320.0" type="line"/>
      <point x="1408.0" y="320.0" type="line"/>
    </contour>
    <contour>
      <point x="1472.0" y="1152.0" type="line"/>
      <point x="64.0" y="1152.0" type="line"/>
      <point x="64.0" y="832.0" type="line"/>
      <point x="1472.0" y="832.0" type="line"/>
    </contour>
  </outline>
</glyph>
<glyph name="ampersand" format="1">
  <advance width="1472.0"/>
  <unicode hex="0026"/>
  <outline>
    <contour>
      <point x="688.0" y="1504" type="line"/>
      <point x="400.0" y="1504"/>
      <point x="224.0" y="1344"/>
      <point x="224.0" y="1104" type="curve"/>
      <point x="224.0" y="1008"/>
      <point x="288.0" y="888"/>
      <point x="352.0" y="800" type="curve"/>
      <point x="960.0" y="0.0" type="line" smooth="yes"/>
      <point x="1376.0" y="0.0" type="line"/>
      <point x="672.0" y="992" type="line" smooth="yes"/>
      <point x="648.0" y="1024"/>
      <point x="640.0" y="1072"/>
      <point x="640.0" y="1104" type="curve"/>
      <point x="640.0" y="1152"/>
      <point x="656.0" y="1168"/>
      <point x="688.0" y="1168" type="curve"/>
    </contour>
    <contour>
      <point x="928.0" y="576" type="line"/>
      <point x="928.0" y="448"/>
      <point x="944.0" y="304"/>
      <point x="688.0" y="304.0" type="curve"/>
      <point x="576.0" y="304.0"/>
      <point x="512.0" y="352.0"/>
      <point x="512.0" y="448.0" type="curve"/>
      <point x="512.0" y="544.0"/>
      <point x="576.0" y="572"/>
      <point x="704.0" y="660" type="curve"/>
      <point x="704.0" y="660"/>
      <point x="532.0" y="832"/>
      <point x="532.0" y="832" type="curve"/>
      <point x="324.0" y="832"/>
      <point x="96.0" y="704.0"/>
      <point x="96.0" y="448.0" type="curve"/>
      <point x="96.0" y="128.0"/>
      <point x="368.0" y="-32.0"/>
      <point x="688.0" y="-32.0" type="curve"/>
      <point x="1104.0" y="-32.0"/>
      <point x="1344.0" y="288"/>
      <point x="1344.0" y="576" type="curve"/>
    </contour>
    <contour>
      <point x="688.0" y="1504" type="curve"/>
      <point x="688.0" y="1168" type="line"/>
      <point x="720.0" y="1168"/>
      <point x="736.0" y="1152"/>
      <point x="736.0" y="1104" type="curve"/>
      <point x="736.0" y="1072"/>
      <point x="728.0" y="1024"/>
      <point x="704.0" y="992" type="curve" smooth="yes"/>
      <point x="632.0" y="892" type="line"/>
      <point x="776.0" y="684" type="line" smooth="yes"/>
      <point x="896.0" y="756" type="line" smooth="yes"/>
      <point x="1040.0" y="840"/>
      <point x="1152.0" y="944"/>
      <point x="1152.0" y="1104" type="curve"/>
      <point x="1152.0" y="1344"/>
      <point x="944.0" y="1504"/>
    </contour>
  </outline>
</glyph>
<glyph name="parenleft" format="1">
  <advance width="608"/>
  <unicode hex="0028"/>
  <outline>
    <contour>
      <point x="144" y="1472" type="line"/>
      <point x="0" y="1184"/>
      <point x="-64" y="928"/>
      <point x="-64" y="640" type="curve"/>
      <point x="-64" y="352"/>
      <point x="0" y="96"/>
      <point x="144" y="-192" type="curve"/>
      <point x="544" y="-192" type="line"/>
      <point x="400" y="96"/>
      <point x="336" y="352"/>
      <point x="336" y="640" type="curve"/>
      <point x="336" y="928"/>
      <point x="400" y="1184"/>
      <point x="544" y="1472" type="curve"/>
    </contour>
  </outline>
</glyph>
<glyph name="parenright" format="1">
  <advance width="608"/>
  <unicode hex="0029"/>
  <outline>
    <contour>
      <point x="336" y="1472" type="curve"/>
      <point x="-64" y="1472" type="line"/>
      <point x="80" y="1184"/>
      <point x="144" y="928"/>
      <point x="144" y="640" type="curve"/>
      <point x="144" y="352"/>
      <point x="80" y="96"/>
      <point x="-64" y="-192" type="curve"/>
      <point x="336" y="-192" type="line"/>
      <point x="480" y="96"/>
      <point x="544" y="352"/>
      <point x="544" y="640" type="curve"/>
      <point x="544" y="928"/>
      <point x="480" y="1184"/>
    </contour>
  </outline>
</glyph>
<glyph name="asterisk" format="1">
  <advance width="948.0"/>
  <unicode hex="002A"/>
  <outline>
    <contour>
      <point x="508" y="996" type="line"/>
      <point x="884" y="1084" type="line"/>
      <point x="804" y="1328" type="line"/>
      <point x="452" y="1180" type="line"/>
    </contour>
    <contour>
      <point x="404" y="1032" type="line"/>
      <point x="604" y="704" type="line"/>
      <point x="808" y="852" type="line"/>
      <point x="556" y="1144" type="line"/>
    </contour>
    <contour>
      <point x="404" y="1144" type="line"/>
      <point x="152" y="852" type="line"/>
      <point x="356" y="704" type="line"/>
      <point x="556" y="1032" type="line"/>
    </contour>
    <contour>
      <point x="508.0" y="1180.0" type="line"/>
      <point x="156.0" y="1328.0" type="line"/>
      <point x="76.0" y="1084.0" type="line"/>
      <point x="452.0" y="996.0" type="line"/>
    </contour>
    <contour>
      <point x="576.0" y="1088.0" type="line"/>
      <point x="608.0" y="1472.0" type="line"/>
      <point x="352.0" y="1472.0" type="line"/>
      <point x="384.0" y="1088.0" type="line"/>
    </contour>
  </outline>
</glyph>
<glyph name="comma" format="1">
  <advance width="496"/>
  <unicode hex="002C"/>
  <outline>
    <contour>
      <point x="416" y="-384" type="line"/>
      <point x="416" y="320" type="line"/>
      <point x="64" y="320" type="line"/>
      <point x="64" y="-320" type="line"/>
    </contour>
  </outline>
</glyph>
<glyph name="slash" format="1">
  <advance width="928"/>
  <unicode hex="002F"/>
  <outline>
    <contour>
      <point x="768" y="1472" type="curve"/>
      <point x="384" y="1472" type="line"/>
      <point x="384" y="1472"/>
      <point x="64" y="0"/>
      <point x="64" y="0" type="curve"/>
      <point x="448" y="0" type="line"/>
      <point x="448" y="0"/>
      <point x="768" y="1472"/>
    </contour>
  </outline>
</glyph>
<glyph name="zero" format="1">
  <advance width="1216.0"/>
  <unicode hex="0030"/>
  <outline>
    <contour>
      <point x="1088.0" y="480.0" type="curve"/>
      <point x="1088.0" y="992.0" type="line"/>
      <point x="1088.0" y="1312.0"/>
      <point x="896.0" y="1504.0"/>
      <point x="576.0" y="1504.0" type="curve"/>
      <point x="256.0" y="1504.0"/>
      <point x="64" y="1312"/>
      <point x="64" y="992" type="curve"/>
      <point x="64" y="480" type="line"/>
      <point x="64" y="160"/>
      <point x="256.0" y="-32.0"/>
      <point x="576.0" y="-32.0" type="curve"/>
      <point x="896.0" y="-32.0"/>
      <point x="1088.0" y="160.0"/>
    </contour>
    <contour>
      <point x="672.0" y="1056.0" type="curve"/>
      <point x="672.0" y="416.0" type="line"/>
      <point x="672.0" y="360.0"/>
      <point x="632.0" y="320.0"/>
      <point x="576.0" y="320.0" type="curve"/>
      <point x="520.0" y="320.0"/>
      <point x="480.0" y="360.0"/>
      <point x="480.0" y="416.0" type="curve"/>
      <point x="480.0" y="1056.0" type="line"/>
      <point x="480.0" y="1112.0"/>
      <point x="520.0" y="1152.0"/>
      <point x="576.0" y="1152.0" type="curve"/>
      <point x="632.0" y="1152.0"/>
      <point x="672.0" y="1112.0"/>
    </contour>
  </outline>
</glyph>
<glyph name="one" format="1">
  <advance width="720"/>
  <unicode hex="0031"/>
  <outline>
    <contour>
      <point x="608" y="0" type="line"/>
      <point x="608" y="1472" type="line"/>
      <point x="32" y="1472" type="line"/>
      <point x="32" y="1152" type="line"/>
      <point x="192" y="1152" type="line"/>
      <point x="192" y="0" type="line"/>
    </contour>
  </outline>
</glyph>
<glyph name="two" format="1">
  <advance width="1024"/>
  <unicode hex="0032"/>
  <outline>
    <contour>
      <point x="928" y="320" type="line"/>
      <point x="384" y="320" type="line"/>
      <point x="96" y="192" type="line"/>
      <point x="96" y="192"/>
      <point x="96" y="0"/>
      <point x="96" y="0" type="curve"/>
      <point x="928" y="0" type="line"/>
    </contour>
    <contour>
      <point x="608" y="960" type="curve" smooth="yes"/>
      <point x="608" y="848"/>
      <point x="512" y="756"/>
      <point x="384" y="576" type="curve" smooth="yes"/>
      <point x="96" y="192" type="line"/>
      <point x="528" y="192" type="line"/>
      <point x="816" y="576" type="line" smooth="yes"/>
      <point x="896" y="684"/>
      <point x="960" y="768"/>
      <point x="960" y="992" type="curve" smooth="yes"/>
      <point x="960" y="1248"/>
      <point x="768" y="1504"/>
      <point x="480" y="1504" type="curve"/>
      <point x="320" y="1504"/>
      <point x="160" y="1440"/>
      <point x="96" y="1408" type="curve"/>
      <point x="96" y="1056" type="line"/>
      <point x="192" y="1120"/>
      <point x="304" y="1152"/>
      <point x="416" y="1152" type="curve" smooth="yes"/>
      <point x="544" y="1152"/>
      <point x="608" y="1056"/>
    </contour>
  </outline>
</glyph>
<glyph name="three" format="1">
  <advance width="1088"/>
  <unicode hex="0033"/>
  <outline>
    <contour>
      <point x="444.0" y="1152.0" type="line"/>
      <point x="192.0" y="896.0" type="line"/>
      <point x="192.0" y="896.0"/>
      <point x="192.0" y="768.0"/>
      <point x="192.0" y="768.0" type="curve"/>
      <point x="416.0" y="768.0" type="line"/>
      <point x="992.0" y="1344.0" type="line"/>
      <point x="992.0" y="1344.0"/>
      <point x="992.0" y="1472.0"/>
      <point x="992.0" y="1472.0" type="curve"/>
      <point x="96.0" y="1472.0" type="line"/>
      <point x="96.0" y="1152.0" type="line"/>
    </contour>
    <contour>
      <point x="384.0" y="-32.0" type="curve"/>
      <point x="704.0" y="-32.0"/>
      <point x="992.0" y="160.0"/>
      <point x="992.0" y="544.0" type="curve"/>
      <point x="992.0" y="928.0"/>
      <point x="704.0" y="1024.0"/>
      <point x="384.0" y="1024.0" type="curve"/>
      <point x="320.0" y="896.0" type="line"/>
      <point x="192.0" y="768.0" type="line"/>
      <point x="460.0" y="768.0"/>
      <point x="576.0" y="720.0"/>
      <point x="576.0" y="544.0" type="curve"/>
      <point x="576.0" y="368.0"/>
      <point x="460.0" y="320.0"/>
      <point x="320.0" y="320.0" type="curve" smooth="yes"/>
      <point x="224.0" y="320.0"/>
      <point x="160.0" y="352.0"/>
      <point x="96.0" y="384.0" type="curve"/>
      <point x="96.0" y="32.0" type="line"/>
      <point x="160.0" y="0.0"/>
      <point x="256.0" y="-32.0"/>
    </contour>
  </outline>
</glyph>
<glyph name="four" format="1">
  <advance width="1148.0"/>
  <unicode hex="0034"/>
  <outline>
    <contour>
      <point x="480" y="384" type="line"/>
      <point x="768" y="1472" type="line"/>
      <point x="368" y="1472" type="line"/>
      <point x="80" y="384" type="line"/>
    </contour>
    <contour>
      <point x="956" y="576" type="line"/>
      <point x="208" y="576" type="line"/>
      <point x="80" y="384" type="line"/>
      <point x="80" y="384"/>
      <point x="80" y="256"/>
      <point x="80" y="256" type="curve"/>
      <point x="956" y="256" type="line"/>
    </contour>
    <contour>
      <point x="1020" y="0" type="line"/>
      <point x="1020" y="704" type="line"/>
      <point x="1020" y="704"/>
      <point x="640" y="704"/>
      <point x="640" y="704" type="curve"/>
      <point x="640" y="0" type="line"/>
    </contour>
  </outline>
</glyph>
<glyph name="five" format="1">
  <advance width="1088.0"/>
  <unicode hex="0035"/>
  <outline>
    <contour>
      <point x="384.0" y="-32.0" type="curve"/>
      <point x="704.0" y="-32.0"/>
      <point x="992.0" y="160.0"/>
      <point x="992.0" y="544.0" type="curve"/>
      <point x="992.0" y="928.0"/>
      <point x="704.0" y="1024.0"/>
      <point x="384.0" y="1024.0" type="curve"/>
      <point x="384.0" y="1024.0"/>
      <point x="224.0" y="768.0"/>
      <point x="224.0" y="768.0" type="curve"/>
      <point x="492.0" y="768.0"/>
      <point x="576.0" y="720.0"/>
      <point x="576.0" y="544.0" type="curve"/>
      <point x="576.0" y="368.0"/>
      <point x="460.0" y="320.0"/>
      <point x="320.0" y="320.0" type="curve" smooth="yes"/>
      <point x="224.0" y="320.0"/>
      <point x="160.0" y="352.0"/>
      <point x="96.0" y="384.0" type="curve"/>
      <point x="96.0" y="32.0" type="line"/>
      <point x="160.0" y="0.0"/>
      <point x="256.0" y="-32.0"/>
    </contour>
    <contour>
      <point x="512.0" y="1152.0" type="curve"/>
      <point x="928.0" y="1152.0" type="line"/>
      <point x="928.0" y="1472.0" type="line"/>
      <point x="272.0" y="1472.0" type="line"/>
      <point x="96.0" y="1028.0" type="line"/>
      <point x="96.0" y="768.0" type="line"/>
      <point x="384.0" y="768.0" type="line"/>
      <point x="384.0" y="768.0"/>
      <point x="512.0" y="1152.0"/>
    </contour>
  </outline>
</glyph>
<glyph name="six" format="1">
  <advance width="1184"/>
  <unicode hex="0036"/>
  <outline>
    <contour>
      <point x="496" y="608" type="curve"/>
      <point x="496" y="608"/>
      <point x="928" y="1472"/>
      <point x="928" y="1472" type="curve"/>
      <point x="928" y="1472"/>
      <point x="512" y="1472"/>
      <point x="512" y="1472" type="curve"/>
      <point x="192" y="832" type="line"/>
      <point x="192" y="832"/>
      <point x="496" y="608"/>
    </contour>
    <contour>
      <point x="592" y="-32" type="curve"/>
      <point x="848" y="-32"/>
      <point x="1120" y="128"/>
      <point x="1120" y="448" type="curve"/>
      <point x="1120" y="768"/>
      <point x="832" y="928"/>
      <point x="544" y="864" type="curve"/>
      <point x="480" y="864" type="line"/>
      <point x="192" y="832" type="line"/>
      <point x="144" y="736"/>
      <point x="64" y="592"/>
      <point x="64" y="448" type="curve"/>
      <point x="64" y="128"/>
      <point x="336" y="-32"/>
    </contour>
    <contour>
      <point x="592" y="304" type="curve"/>
      <point x="512" y="304"/>
      <point x="480" y="352"/>
      <point x="480" y="448" type="curve" smooth="yes"/>
      <point x="480" y="544"/>
      <point x="512" y="592"/>
      <point x="592" y="592" type="curve"/>
      <point x="672" y="592"/>
      <point x="704" y="544"/>
      <point x="704" y="448" type="curve" smooth="yes"/>
      <point x="704" y="352"/>
      <point x="672" y="304"/>
    </contour>
  </outline>
</glyph>
<glyph name="seven" format="1">
  <advance width="1056"/>
  <unicode hex="0037"/>
  <outline>
    <contour>
      <point x="776" y="1472" type="curve"/>
      <point x="96" y="1472" type="line"/>
      <point x="96" y="1472"/>
      <point x="96" y="1152"/>
      <point x="96" y="1152" type="curve"/>
      <point x="776" y="1152" type="line"/>
      <point x="776" y="1152"/>
      <point x="776" y="1472"/>
    </contour>
    <contour>
      <point x="708" y="1472" type="curve"/>
      <point x="64" y="0" type="line"/>
      <point x="480" y="0" type="line"/>
      <point x="992" y="1344" type="line"/>
      <point x="992" y="1472" type="line"/>
      <point x="992" y="1472"/>
      <point x="708" y="1472"/>
    </contour>
  </outline>
</glyph>
<glyph name="eight" format="1">
  <advance width="1184"/>
  <unicode hex="0038"/>
  <outline>
    <contour>
      <point x="592" y="704" type="curve"/>
      <point x="848" y="704"/>
      <point x="1072.0" y="832.0"/>
      <point x="1072.0" y="1056.0" type="curve"/>
      <point x="1072.0" y="1376.0"/>
      <point x="848.0" y="1472.0"/>
      <point x="592.0" y="1472.0" type="curve"/>
      <point x="336.0" y="1472.0"/>
      <point x="112.0" y="1376.0"/>
      <point x="112.0" y="1056.0" type="curve"/>
      <point x="112.0" y="832.0"/>
      <point x="336" y="704"/>
    </contour>
    <contour>
      <point x="592" y="896" type="curve"/>
      <point x="512" y="896"/>
      <point x="496.0" y="960.0"/>
      <point x="496.0" y="1024.0" type="curve"/>
      <point x="496.0" y="1088.0"/>
      <point x="512.0" y="1152.0"/>
      <point x="592.0" y="1152.0" type="curve"/>
      <point x="672.0" y="1152.0"/>
      <point x="688.0" y="1088.0"/>
      <point x="688.0" y="1024.0" type="curve"/>
      <point x="688.0" y="960.0"/>
      <point x="672" y="896"/>
    </contour>
    <contour>
      <point x="592.0" y="-32.0" type="curve"/>
      <point x="880" y="-32"/>
      <point x="1104" y="128"/>
      <point x="1104" y="480" type="curve"/>
      <point x="1104" y="752"/>
      <point x="848" y="864"/>
      <point x="592" y="864" type="curve"/>
      <point x="336" y="864"/>
      <point x="80" y="752"/>
      <point x="80" y="480" type="curve"/>
      <point x="80" y="128"/>
      <point x="304" y="-32"/>
    </contour>
    <contour>
      <point x="592.0" y="320.0" type="curve"/>
      <point x="512.0" y="320.0"/>
      <point x="480" y="384"/>
      <point x="480" y="480" type="curve"/>
      <point x="480" y="576"/>
      <point x="512" y="672"/>
      <point x="592" y="672" type="curve"/>
      <point x="672" y="672"/>
      <point x="704" y="576"/>
      <point x="704" y="480" type="curve"/>
      <point x="704" y="384"/>
      <point x="672.0" y="320.0"/>
    </contour>
  </outline>
</glyph>
<glyph name="nine" format="1">
  <advance width="1184"/>
  <unicode hex="0039"/>
  <outline>
    <contour>
      <point x="592" y="1168" type="curve"/>
      <point x="672" y="1168"/>
      <point x="704" y="1120"/>
      <point x="704" y="1024" type="curve" smooth="yes"/>
      <point x="704" y="928"/>
      <point x="672" y="880"/>
      <point x="592" y="880" type="curve"/>
      <point x="512" y="880"/>
      <point x="480" y="928"/>
      <point x="480" y="1024" type="curve" smooth="yes"/>
      <point x="480" y="1120"/>
      <point x="512" y="1168"/>
    </contour>
    <contour>
      <point x="592" y="1504" type="curve"/>
      <point x="336" y="1504"/>
      <point x="64" y="1344"/>
      <point x="64" y="1024" type="curve"/>
      <point x="64" y="704"/>
      <point x="352" y="544"/>
      <point x="640" y="608" type="curve"/>
      <point x="704" y="608" type="line"/>
      <point x="992" y="640" type="line"/>
      <point x="1040" y="736"/>
      <point x="1120" y="880"/>
      <point x="1120" y="1024" type="curve"/>
      <point x="1120" y="1344"/>
      <point x="848" y="1504"/>
    </contour>
    <contour>
      <point x="688" y="864" type="curve"/>
      <point x="688" y="864"/>
      <point x="256" y="0"/>
      <point x="256" y="0" type="curve"/>
      <point x="256" y="0"/>
      <point x="672" y="0"/>
      <point x="672" y="0" type="curve"/>
      <point x="992" y="640" type="line"/>
      <point x="992" y="640"/>
      <point x="688" y="864"/>
    </contour>
  </outline>
</glyph>
<glyph name="at" format="1">
  <advance width="2144"/>
  <unicode hex="0040"/>
  <outline>
    <contour>
      <point x="972.0" y="288.0" type="line" smooth="yes"/>
      <point x="972.0" y="128.0"/>
      <point x="1120.0" y="-32.0"/>
      <point x="1280.0" y="-32.0" type="curve"/>
      <point x="1436.0" y="-32.0"/>
      <point x="1728.0" y="32.0"/>
      <point x="1728.0" y="512.0" type="curve" smooth="yes"/>
      <point x="1728.0" y="704.0" type="line" smooth="yes"/>
      <point x="1728.0" y="1184.0"/>
      <point x="1408.0" y="1504.0"/>
      <point x="896.0" y="1504.0" type="curve"/>
      <point x="448.0" y="1504.0"/>
      <point x="64.0" y="1184.0"/>
      <point x="64.0" y="704.0" type="curve" smooth="yes"/>
      <point x="64.0" y="512.0" type="line" smooth="yes"/>
      <point x="64.0" y="-96.0"/>
      <point x="516.0" y="-288.0"/>
      <point x="896.0" y="-288.0" type="curve"/>
      <point x="896.0" y="-112.0" type="line"/>
      <point x="580.0" y="-112.0"/>
      <point x="256.0" y="32.0"/>
      <point x="256.0" y="576.0" type="curve" smooth="yes"/>
      <point x="256.0" y="640.0" type="line" smooth="yes"/>
      <point x="256.0" y="1056.0"/>
      <point x="540.0" y="1328.0"/>
      <point x="896.0" y="1328.0" type="curve"/>
      <point x="1312.0" y="1328.0"/>
      <point x="1536.0" y="1044.0"/>
      <point x="1536.0" y="640.0" type="curve" smooth="yes"/>
      <point x="1536.0" y="576.0" type="line" smooth="yes"/>
      <point x="1536.0" y="160.0"/>
      <point x="1376.0" y="152.0"/>
      <point x="1312.0" y="152.0" type="curve"/>
      <point x="1184.0" y="152.0"/>
      <point x="1140.0" y="336.0"/>
      <point x="1164.0" y="452.0" type="curve" smooth="yes"/>
      <point x="1284.0" y="1024.0" type="line"/>
      <point x="1072.0" y="1024.0" type="line"/>
      <point x="916.0" y="296.0" type="line"/>
      <point x="972.0" y="296.0" type="line"/>
    </contour>
    <contour>
      <point x="1012.0" y="872.0" type="curve"/>
      <point x="1124.0" y="872.0" type="line"/>
      <point x="1284.0" y="1024.0" type="line"/>
      <point x="1212.0" y="1044.0"/>
      <point x="1128.0" y="1052.0"/>
      <point x="1024.0" y="1052.0" type="curve"/>
      <point x="792.0" y="1052.0"/>
      <point x="480.0" y="860.0"/>
      <point x="480.0" y="428.0" type="curve" smooth="yes"/>
      <point x="480.0" y="252.0"/>
      <point x="584.0" y="168.0"/>
      <point x="732.0" y="168.0" type="curve"/>
      <point x="888.0" y="168.0"/>
      <point x="1024.0" y="324.0"/>
      <point x="1048.0" y="424.0" type="curve"/>
      <point x="964.0" y="508.0" type="line"/>
      <point x="936.0" y="376.0"/>
      <point x="848.0" y="352.0"/>
      <point x="796.0" y="352.0" type="curve"/>
      <point x="720.0" y="352.0"/>
      <point x="680.0" y="404.0"/>
      <point x="712.0" y="556.0" type="curve"/>
      <point x="752.0" y="740.0"/>
      <point x="868.0" y="872.0"/>
    </contour>
  </outline>
</glyph>
<glyph name="A" format="1">
  <advance width="1280"/>
  <unicode hex="0041"/>
  <outline>
    <contour>
      <point x="544" y="1472" type="line"/>
      <point x="544" y="1472"/>
      <point x="816" y="0"/>
      <point x="816" y="0" type="curve"/>
      <point x="1248" y="0" type="line"/>
      <point x="1248" y="0"/>
      <point x="928" y="1472"/>
      <point x="928" y="1472" type="curve"/>
    </contour>
    <contour>
      <point x="704" y="1472" type="curve"/>
      <point x="352" y="1472" type="line"/>
      <point x="352" y="1472"/>
      <point x="32" y="0"/>
      <point x="32" y="0" type="curve"/>
      <point x="432" y="0" type="line"/>
      <point x="432" y="0"/>
      <point x="704" y="1472"/>
    </contour>
    <contour>
      <point x="896.0" y="512.0" type="line"/>
      <point x="320.0" y="512.0" type="line"/>
      <point x="320.0" y="192.0" type="line"/>
      <point x="896.0" y="192.0" type="line"/>
    </contour>
  </outline>
</glyph>
<glyph name="B" format="1">
  <advance width="1216.0"/>
  <unicode hex="0042"/>
  <outline>
    <contour>
      <point x="96.0" y="0.0" type="curve"/>
      <point x="512.0" y="0" type="line"/>
      <point x="512.0" y="1472" type="line"/>
      <point x="96.0" y="1472.0" type="line"/>
      <point x="96.0" y="1472.0"/>
      <point x="96.0" y="0.0"/>
    </contour>
    <contour>
      <point x="480.0" y="688" type="line"/>
      <point x="800.0" y="688"/>
      <point x="1088.0" y="768.0"/>
      <point x="1088.0" y="1024.0" type="curve"/>
      <point x="1088.0" y="1280.0"/>
      <point x="896.0" y="1472"/>
      <point x="544.0" y="1472" type="curve"/>
      <point x="304.0" y="1472.0" type="line"/>
      <point x="304.0" y="1152.0" type="line"/>
      <point x="576.0" y="1152.0" type="line"/>
      <point x="672.0" y="1152.0"/>
      <point x="704.0" y="1088.0"/>
      <point x="704.0" y="1024.0" type="curve"/>
      <point x="704.0" y="960.0"/>
      <point x="672.0" y="896.0"/>
      <point x="576.0" y="896.0" type="curve"/>
      <point x="304.0" y="896.0" type="line"/>
      <point x="304.0" y="688" type="line"/>
    </contour>
    <contour>
      <point x="544.0" y="0" type="line"/>
      <point x="1120.0" y="0"/>
      <point x="1152.0" y="256.0"/>
      <point x="1152.0" y="480.0" type="curve"/>
      <point x="1152.0" y="736"/>
      <point x="928.0" y="848"/>
      <point x="608.0" y="848" type="curve"/>
      <point x="368.0" y="848" type="line"/>
      <point x="368.0" y="640.0" type="line"/>
      <point x="576.0" y="640.0" type="line"/>
      <point x="672.0" y="640.0"/>
      <point x="736.0" y="576.0"/>
      <point x="736.0" y="480.0" type="curve"/>
      <point x="736.0" y="384.0"/>
      <point x="672.0" y="320.0"/>
      <point x="576.0" y="320.0" type="curve"/>
      <point x="368.0" y="320.0" type="line"/>
      <point x="368.0" y="0" type="line"/>
    </contour>
  </outline>
</glyph>
<glyph name="C" format="1">
  <advance width="896"/>
  <unicode hex="0043"/>
  <outline>
    <contour>
      <point x="864" y="32" type="curve"/>
      <point x="864" y="368" type="line"/>
      <point x="832" y="352"/>
      <point x="768" y="320"/>
      <point x="672" y="320" type="curve"/>
      <point x="544" y="320"/>
      <point x="480" y="384"/>
      <point x="480" y="544" type="curve"/>
      <point x="480" y="928" type="line"/>
      <point x="480" y="1088"/>
      <point x="544" y="1152"/>
      <point x="672" y="1152" type="curve"/>
      <point x="768" y="1152"/>
      <point x="832" y="1104"/>
      <point x="864" y="1088" type="curve"/>
      <point x="864" y="1440" type="line"/>
      <point x="800" y="1472"/>
      <point x="704" y="1504"/>
      <point x="576" y="1504" type="curve"/>
      <point x="272" y="1504"/>
      <point x="64" y="1344"/>
      <point x="64" y="992" type="curve"/>
      <point x="64" y="480" type="line"/>
      <point x="64" y="128"/>
      <point x="272" y="-32"/>
      <point x="576" y="-32" type="curve"/>
      <point x="704" y="-32"/>
      <point x="800" y="0"/>
    </contour>
  </outline>
</glyph>
<glyph name="D" format="1">
  <advance width="1184"/>
  <unicode hex="0044"/>
  <outline>
    <contour>
      <point x="512" y="0" type="line"/>
      <point x="512" y="1472" type="line"/>
      <point x="96" y="1472" type="line"/>
      <point x="96" y="0" type="line"/>
    </contour>
    <contour>
      <point x="608" y="0" type="line"/>
      <point x="864" y="0"/>
      <point x="1120" y="160"/>
      <point x="1120" y="480" type="curve"/>
      <point x="1120" y="992" type="line"/>
      <point x="1120" y="1312"/>
      <point x="864" y="1472"/>
      <point x="608" y="1472" type="curve"/>
      <point x="348" y="1472" type="line"/>
      <point x="348" y="1152" type="line"/>
      <point x="512" y="1152" type="line"/>
      <point x="640" y="1152"/>
      <point x="704" y="1088"/>
      <point x="704" y="960" type="curve"/>
      <point x="704" y="512" type="line"/>
      <point x="704" y="384"/>
      <point x="640" y="320"/>
      <point x="512" y="320" type="curve"/>
      <point x="348" y="320" type="line"/>
      <point x="348" y="0" type="line"/>
    </contour>
  </outline>
</glyph>
<glyph name="E" format="1">
  <advance width="992.0"/>
  <unicode hex="0045"/>
  <outline>
    <contour>
      <point x="96.0" y="0.0" type="line"/>
      <point x="96.0" y="0.0"/>
      <point x="928.0" y="0.0"/>
      <point x="928.0" y="0.0" type="curve"/>
      <point x="928.0" y="320.0" type="line"/>
      <point x="512.0" y="320.0" type="line"/>
      <point x="512.0" y="608.0" type="line"/>
      <point x="864.0" y="608.0" type="line"/>
      <point x="864.0" y="928.0" type="line"/>
      <point x="512.0" y="928.0" type="line"/>
      <point x="512.0" y="1152.0" type="line"/>
      <point x="928.0" y="1152.0" type="line"/>
      <point x="928.0" y="1152.0"/>
      <point x="928.0" y="1472.0"/>
      <point x="928.0" y="1472.0" type="curve"/>
      <point x="928.0" y="1472.0"/>
      <point x="96.0" y="1472.0"/>
      <point x="96.0" y="1472.0" type="curve"/>
    </contour>
  </outline>
</glyph>
<glyph name="F" format="1">
  <advance width="992"/>
  <unicode hex="0046"/>
  <outline>
    <contour>
      <point x="96" y="0" type="line"/>
      <point x="96" y="0"/>
      <point x="512" y="0"/>
      <point x="512" y="0" type="curve"/>
      <point x="512" y="608" type="line"/>
      <point x="864" y="608" type="line"/>
      <point x="864" y="928" type="line"/>
      <point x="512" y="928" type="line"/>
      <point x="512" y="1152" type="line"/>
      <point x="928" y="1152" type="line"/>
      <point x="928" y="1152"/>
      <point x="928" y="1472"/>
      <point x="928" y="1472" type="curve"/>
      <point x="928" y="1472"/>
      <point x="96" y="1472"/>
      <point x="96" y="1472" type="curve"/>
    </contour>
  </outline>
</glyph>
<glyph name="G" format="1">
  <advance width="1088"/>
  <unicode hex="0047"/>
  <outline>
    <contour>
      <point x="672" y="192" type="line"/>
      <point x="1024" y="192" type="line"/>
      <point x="1024" y="768" type="line"/>
      <point x="672" y="768" type="line"/>
    </contour>
    <contour>
      <point x="64" y="992" type="curve"/>
      <point x="64" y="480" type="line"/>
      <point x="64" y="128"/>
      <point x="272" y="-32"/>
      <point x="576" y="-32" type="curve"/>
      <point x="752" y="-32"/>
      <point x="928" y="32"/>
      <point x="1024" y="192" type="curve"/>
      <point x="736" y="512" type="line"/>
      <point x="736" y="416"/>
      <point x="672" y="320"/>
      <point x="576" y="320" type="curve"/>
      <point x="512" y="320"/>
      <point x="480" y="368"/>
      <point x="480" y="416" type="curve"/>
      <point x="480" y="928" type="line"/>
      <point x="480" y="1088"/>
      <point x="576" y="1152"/>
      <point x="704" y="1152" type="curve"/>
      <point x="800" y="1152"/>
      <point x="928" y="1104"/>
      <point x="960" y="1088" type="curve"/>
      <point x="960" y="1440" type="line"/>
      <point x="896" y="1472"/>
      <point x="768" y="1504"/>
      <point x="640" y="1504" type="curve"/>
      <point x="336" y="1504"/>
      <point x="64" y="1344"/>
    </contour>
  </outline>
</glyph>
<glyph name="I" format="1">
  <advance width="608"/>
  <unicode hex="0049"/>
  <outline>
    <contour>
      <point x="96" y="0" type="curve"/>
      <point x="512" y="0" type="line"/>
      <point x="512" y="1472" type="line"/>
      <point x="96" y="1472" type="line"/>
      <point x="96" y="240"/>
      <point x="96" y="0"/>
    </contour>
  </outline>
</glyph>
<glyph name="J" format="1">
  <advance width="792"/>
  <unicode hex="004A"/>
  <outline>
    <contour>
      <point x="64.0" y="0.0"/>
      <point x="176" y="-32"/>
      <point x="224" y="-32" type="curve"/>
      <point x="512" y="-32"/>
      <point x="704" y="160"/>
      <point x="704" y="480" type="curve"/>
      <point x="704.0" y="1472.0" type="line"/>
      <point x="288.0" y="1472.0" type="line"/>
      <point x="288" y="416" type="line"/>
      <point x="288" y="360"/>
      <point x="256.0" y="304"/>
      <point x="160.0" y="304.0" type="curve"/>
      <point x="104.0" y="304.0"/>
      <point x="64" y="320"/>
      <point x="32" y="336" type="curve"/>
      <point x="32.0" y="32.0" type="line"/>
    </contour>
  </outline>
</glyph>
<glyph name="K" format="1">
  <advance width="1184"/>
  <unicode hex="004B"/>
  <outline>
    <contour>
      <point x="448" y="800" type="line"/>
      <point x="448" y="800"/>
      <point x="704" y="0"/>
      <point x="704" y="0" type="curve"/>
      <point x="1152" y="0" type="line"/>
      <point x="1152" y="0"/>
      <point x="896" y="800"/>
      <point x="896" y="800" type="curve"/>
      <point x="896" y="800"/>
      <point x="1152" y="1472"/>
      <point x="1152" y="1472" type="curve"/>
      <point x="768" y="1472" type="line"/>
      <point x="512" y="800" type="line"/>
    </contour>
    <contour>
      <point x="96" y="0" type="line"/>
      <point x="512" y="0" type="line"/>
      <point x="512" y="1472" type="line"/>
      <point x="96" y="1472" type="line"/>
    </contour>
  </outline>
</glyph>
<glyph name="L" format="1">
  <advance width="960"/>
  <unicode hex="004C"/>
  <outline>
    <contour>
      <point x="96" y="0" type="line"/>
      <point x="96" y="0"/>
      <point x="928" y="0"/>
      <point x="928" y="0" type="curve"/>
      <point x="928" y="320" type="line"/>
      <point x="512" y="320" type="line"/>
      <point x="512" y="320"/>
      <point x="512" y="1472"/>
      <point x="512" y="1472" type="curve"/>
      <point x="96" y="1472" type="line"/>
    </contour>
  </outline>
</glyph>
<glyph name="M" format="1">
  <advance width="1408"/>
  <unicode hex="004D"/>
  <outline>
    <contour>
      <point x="704" y="968" type="line"/>
      <point x="416" y="1472" type="line"/>
      <point x="96" y="1472" type="line"/>
      <point x="96" y="0" type="line"/>
      <point x="512" y="0" type="line"/>
      <point x="512" y="768" type="line"/>
      <point x="704" y="448" type="line"/>
      <point x="896" y="768" type="line"/>
      <point x="896" y="0" type="line"/>
      <point x="1312" y="0" type="line"/>
      <point x="1312" y="1472" type="line"/>
      <point x="992" y="1472" type="line"/>
    </contour>
  </outline>
</glyph>
<glyph name="O" format="1">
  <advance width="1152"/>
  <unicode hex="004F"/>
  <outline>
    <contour>
      <point x="672" y="1056" type="curve"/>
      <point x="672" y="416" type="line"/>
      <point x="672" y="360"/>
      <point x="632" y="320"/>
      <point x="576" y="320" type="curve"/>
      <point x="520" y="320"/>
      <point x="480" y="360"/>
      <point x="480" y="416" type="curve"/>
      <point x="480" y="1056" type="line"/>
      <point x="480" y="1112"/>
      <point x="520" y="1152"/>
      <point x="576" y="1152" type="curve"/>
      <point x="632" y="1152"/>
      <point x="672" y="1112"/>
    </contour>
    <contour>
      <point x="1088" y="480" type="curve"/>
      <point x="1088" y="992" type="line"/>
      <point x="1088" y="1312"/>
      <point x="896" y="1504"/>
      <point x="576" y="1504" type="curve"/>
      <point x="256" y="1504"/>
      <point x="64" y="1312"/>
      <point x="64" y="992" type="curve"/>
      <point x="64" y="480" type="line"/>
      <point x="64" y="160"/>
      <point x="256" y="-32"/>
      <point x="576" y="-32" type="curve"/>
      <point x="896" y="-32"/>
      <point x="1088" y="160"/>
    </contour>
  </outline>
</glyph>
<glyph name="P" format="1">
  <advance width="1184.0"/>
  <unicode hex="0050"/>
  <outline>
    <contour>
      <point x="96.0" y="1472.0" type="line"/>
      <point x="96.0" y="0.0" type="line"/>
      <point x="512.0" y="0.0" type="line"/>
      <point x="512.0" y="1472.0" type="line"/>
    </contour>
    <contour>
      <point x="608.0" y="448" type="line"/>
      <point x="864.0" y="448"/>
      <point x="1120.0" y="608"/>
      <point x="1120.0" y="928" type="curve"/>
      <point x="1120.0" y="992" type="line"/>
      <point x="1120.0" y="1312"/>
      <point x="864.0" y="1472"/>
      <point x="608.0" y="1472" type="curve"/>
      <point x="384.0" y="1472" type="line"/>
      <point x="384.0" y="1152" type="line"/>
      <point x="512.0" y="1152" type="line"/>
      <point x="640.0" y="1152"/>
      <point x="704.0" y="1088"/>
      <point x="704.0" y="960" type="curve"/>
      <point x="704.0" y="832"/>
      <point x="640.0" y="768"/>
      <point x="512.0" y="768" type="curve"/>
      <point x="384.0" y="768" type="line"/>
      <point x="384.0" y="448" type="line"/>
    </contour>
  </outline>
</glyph>
<glyph name="Q" format="1">
  <advance width="1200"/>
  <unicode hex="0051"/>
  <outline>
    <contour>
      <point x="672" y="1056" type="curve"/>
      <point x="672" y="416" type="line"/>
      <point x="672" y="360"/>
      <point x="632" y="320"/>
      <point x="576" y="320" type="curve"/>
      <point x="520" y="320"/>
      <point x="480" y="360"/>
      <point x="480" y="416" type="curve"/>
      <point x="480" y="1056" type="line"/>
      <point x="480" y="1112"/>
      <point x="520" y="1152"/>
      <point x="576" y="1152" type="curve"/>
      <point x="632" y="1152"/>
      <point x="672" y="1112"/>
    </contour>
    <contour>
      <point x="1088" y="480" type="curve"/>
      <point x="1088" y="992" type="line"/>
      <point x="1088" y="1312"/>
      <point x="896" y="1504"/>
      <point x="576" y="1504" type="curve"/>
      <point x="256" y="1504"/>
      <point x="64" y="1312"/>
      <point x="64" y="992" type="curve"/>
      <point x="64" y="480" type="line"/>
      <point x="64" y="160"/>
      <point x="256" y="0"/>
      <point x="576" y="0" type="curve"/>
      <point x="896" y="0"/>
      <point x="1088" y="160"/>
    </contour>
    <contour>
      <point x="1152" y="0" type="line"/>
      <point x="896" y="512" type="line"/>
      <point x="640" y="256" type="line"/>
      <point x="576" y="0" type="line"/>
    </contour>
  </outline>
</glyph>
<glyph name="R" format="1">
  <advance width="1216.0"/>
  <unicode hex="0052"/>
  <outline>
    <contour>
      <point x="96.0" y="1472.0" type="line"/>
      <point x="96.0" y="0.0" type="line"/>
      <point x="512.0" y="0.0" type="line"/>
      <point x="512.0" y="1472" type="line"/>
    </contour>
    <contour>
      <point x="640.0" y="448" type="line"/>
      <point x="896.0" y="448"/>
      <point x="1152.0" y="608"/>
      <point x="1152.0" y="928" type="curve"/>
      <point x="1152.0" y="992" type="line"/>
      <point x="1152.0" y="1312"/>
      <point x="896.0" y="1472"/>
      <point x="640.0" y="1472" type="curve"/>
      <point x="348.0" y="1472.0" type="line"/>
      <point x="348.0" y="1152.0" type="line"/>
      <point x="544.0" y="1152" type="line"/>
      <point x="672.0" y="1152"/>
      <point x="736.0" y="1088"/>
      <point x="736.0" y="960" type="curve"/>
      <point x="736.0" y="832"/>
      <point x="672.0" y="768"/>
      <point x="544.0" y="768" type="curve"/>
      <point x="348.0" y="768.0" type="line"/>
      <point x="348.0" y="448.0" type="line"/>
    </contour>
    <contour>
      <point x="1152.0" y="0" type="line"/>
      <point x="1152.0" y="0"/>
      <point x="904.0" y="736"/>
      <point x="904.0" y="736" type="curve"/>
      <point x="552.0" y="704" type="line"/>
      <point x="552.0" y="704"/>
      <point x="736.0" y="0"/>
      <point x="736.0" y="0" type="curve"/>
    </contour>
  </outline>
</glyph>
<glyph name="S" format="1">
  <advance width="960"/>
  <unicode hex="0053"/>
  <outline>
    <contour>
      <point x="384" y="560" type="line" smooth="yes"/>
      <point x="464" y="480"/>
      <point x="512" y="432"/>
      <point x="512" y="384" type="curve"/>
      <point x="512" y="340"/>
      <point x="496" y="288"/>
      <point x="384" y="288" type="curve" smooth="yes"/>
      <point x="292" y="288"/>
      <point x="160" y="320"/>
      <point x="96" y="352" type="curve"/>
      <point x="96" y="32" type="line"/>
      <point x="160" y="0"/>
      <point x="304" y="-32"/>
      <point x="416" y="-32" type="curve"/>
      <point x="688" y="-32"/>
      <point x="928" y="76"/>
      <point x="928" y="384" type="curve"/>
      <point x="928" y="576"/>
      <point x="800" y="688"/>
      <point x="736" y="752" type="curve" smooth="yes"/>
      <point x="576" y="912" type="line" smooth="yes"/>
      <point x="508" y="980"/>
      <point x="448" y="1024"/>
      <point x="448" y="1088" type="curve"/>
      <point x="448" y="1148"/>
      <point x="472" y="1184"/>
      <point x="544" y="1184" type="curve" smooth="yes"/>
      <point x="692" y="1184"/>
      <point x="800" y="1152"/>
      <point x="864" y="1120" type="curve"/>
      <point x="864" y="1440" type="line"/>
      <point x="800" y="1472"/>
      <point x="688" y="1504"/>
      <point x="512" y="1504" type="curve"/>
      <point x="288" y="1504"/>
      <point x="32" y="1424"/>
      <point x="32" y="1088" type="curve" smooth="yes"/>
      <point x="32" y="928"/>
      <point x="128" y="816"/>
      <point x="224" y="720" type="curve" smooth="yes"/>
    </contour>
  </outline>
</glyph>
<glyph name="T" format="1">
  <advance width="1024"/>
  <unicode hex="0054"/>
  <outline>
    <contour>
      <point x="720.0" y="0.0" type="line"/>
      <point x="720.0" y="1152.0" type="line"/>
      <point x="992.0" y="1152.0" type="line"/>
      <point x="992.0" y="1472.0" type="line"/>
      <point x="32.0" y="1472.0" type="line"/>
      <point x="32.0" y="1152.0" type="line"/>
      <point x="304.0" y="1152.0" type="line"/>
      <point x="304.0" y="0.0" type="line"/>
    </contour>
  </outline>
</glyph>
<glyph name="U" format="1">
  <advance width="1200.0"/>
  <unicode hex="0055"/>
  <outline>
    <contour>
      <point x="88" y="1472" type="line"/>
      <point x="88.0" y="480.0" type="line"/>
      <point x="88.0" y="160.0"/>
      <point x="280.0" y="-32.0"/>
      <point x="600.0" y="-32.0" type="curve"/>
      <point x="920.0" y="-32.0"/>
      <point x="1112.0" y="160.0"/>
      <point x="1112.0" y="480.0" type="curve"/>
      <point x="1112" y="1472" type="line"/>
      <point x="696" y="1472" type="line"/>
      <point x="696.0" y="416.0" type="line"/>
      <point x="696.0" y="360.0"/>
      <point x="656.0" y="320.0"/>
      <point x="600.0" y="320.0" type="curve"/>
      <point x="544.0" y="320.0"/>
      <point x="504.0" y="360.0"/>
      <point x="504.0" y="416.0" type="curve"/>
      <point x="504" y="1472" type="line"/>
    </contour>
  </outline>
</glyph>
<glyph name="V" format="1">
  <advance width="1280"/>
  <unicode hex="0056"/>
  <outline>
    <contour>
      <point x="736" y="0" type="line"/>
      <point x="736" y="0"/>
      <point x="464" y="1472"/>
      <point x="464" y="1472" type="curve"/>
      <point x="32" y="1472" type="line"/>
      <point x="32" y="1472"/>
      <point x="352" y="0"/>
      <point x="352" y="0" type="curve"/>
    </contour>
    <contour>
      <point x="576" y="0" type="curve"/>
      <point x="928" y="0" type="line"/>
      <point x="928" y="0"/>
      <point x="1248" y="1472"/>
      <point x="1248" y="1472" type="curve"/>
      <point x="848" y="1472" type="line"/>
      <point x="848" y="1472"/>
      <point x="576" y="0"/>
    </contour>
  </outline>
</glyph>
<glyph name="W" format="1">
  <advance width="1856.0"/>
  <unicode hex="0057"/>
  <outline>
    <contour>
      <point x="1168.0" y="0" type="curve"/>
      <point x="1504.0" y="0" type="line"/>
      <point x="1504.0" y="0"/>
      <point x="1824.0" y="1472"/>
      <point x="1824.0" y="1472" type="curve"/>
      <point x="1440.0" y="1472" type="line"/>
      <point x="1440.0" y="1472"/>
      <point x="1168.0" y="0"/>
    </contour>
    <contour>
      <point x="1328.0" y="0" type="line"/>
      <point x="1328.0" y="0"/>
      <point x="1120.0" y="1472"/>
      <point x="1120.0" y="1472" type="curve"/>
      <point x="784.0" y="1472.0" type="line"/>
      <point x="784.0" y="1472.0"/>
      <point x="1008.0" y="0"/>
      <point x="1008.0" y="0" type="curve"/>
    </contour>
    <contour>
      <point x="576.0" y="0.0" type="curve"/>
      <point x="800.0" y="0" type="line"/>
      <point x="800.0" y="0"/>
      <point x="1056.0" y="1472"/>
      <point x="1056.0" y="1472" type="curve"/>
      <point x="784.0" y="1472.0" type="line"/>
      <point x="784.0" y="1472.0"/>
      <point x="576.0" y="0.0"/>
    </contour>
    <contour>
      <point x="736.0" y="0.0" type="line"/>
      <point x="736.0" y="0.0"/>
      <point x="464.0" y="1472.0"/>
      <point x="464.0" y="1472.0" type="curve"/>
      <point x="32.0" y="1472.0" type="line"/>
      <point x="32.0" y="1472.0"/>
      <point x="352.0" y="0.0"/>
      <point x="352.0" y="0.0" type="curve"/>
    </contour>
  </outline>
</glyph>
<glyph name="X" format="1">
  <advance width="1184.0"/>
  <unicode hex="0058"/>
  <outline>
    <contour>
      <point x="736.0" y="768.0" type="line"/>
      <point x="736.0" y="768.0"/>
      <point x="480.0" y="1472.0"/>
      <point x="480.0" y="1472.0" type="curve"/>
      <point x="32.0" y="1472.0" type="line"/>
      <point x="32.0" y="1472.0"/>
      <point x="320.0" y="768.0"/>
      <point x="320.0" y="768.0" type="curve"/>
      <point x="320.0" y="768.0"/>
      <point x="32.0" y="0.0"/>
      <point x="32.0" y="0.0" type="curve"/>
      <point x="416.0" y="0.0" type="line"/>
      <point x="688.0" y="768.0" type="line"/>
    </contour>
    <contour>
      <point x="448.0" y="768.0" type="line"/>
      <point x="448.0" y="768.0"/>
      <point x="704.0" y="0.0"/>
      <point x="704.0" y="0.0" type="curve"/>
      <point x="1152.0" y="0.0" type="line"/>
      <point x="1152.0" y="0.0"/>
      <point x="864.0" y="768.0"/>
      <point x="864.0" y="768.0" type="curve"/>
      <point x="864.0" y="768.0"/>
      <point x="1152.0" y="1472.0"/>
      <point x="1152.0" y="1472.0" type="curve"/>
      <point x="768.0" y="1472.0" type="line"/>
      <point x="496.0" y="768.0" type="line"/>
    </contour>
  </outline>
</glyph>
<glyph name="Y" format="1">
  <advance width="1152"/>
  <unicode hex="0059"/>
  <outline>
    <contour>
      <point x="368" y="0" type="line"/>
      <point x="784" y="0" type="line"/>
      <point x="784" y="784" type="line"/>
      <point x="368" y="784" type="line"/>
    </contour>
    <contour>
      <point x="704" y="576" type="line"/>
      <point x="432" y="1472" type="line"/>
      <point x="0" y="1472" type="line"/>
      <point x="368" y="576" type="line"/>
    </contour>
    <contour>
      <point x="448" y="576" type="line"/>
      <point x="784" y="576" type="line"/>
      <point x="1144" y="1472" type="line"/>
      <point x="728" y="1472" type="line"/>
    </contour>
  </outline>
</glyph>
<glyph name="Z" format="1">
  <advance width="992"/>
  <unicode hex="005A"/>
  <outline>
    <contour>
      <point x="64" y="320" type="line"/>
      <point x="480" y="320" type="line"/>
      <point x="928" y="1152" type="line"/>
      <point x="512" y="1152" type="line"/>
    </contour>
    <contour>
      <point x="928" y="0"/>
      <point x="928" y="320"/>
      <point x="928" y="320" type="curve"/>
      <point x="64" y="320" type="line"/>
      <point x="64" y="320"/>
      <point x="64" y="0"/>
      <point x="64" y="0" type="curve"/>
      <point x="928" y="0" type="line"/>
    </contour>
    <contour>
      <point x="928" y="1152" type="line"/>
      <point x="928" y="1152"/>
      <point x="928" y="1472"/>
      <point x="928" y="1472" type="curve"/>
      <point x="64" y="1472" type="line"/>
      <point x="64" y="1472"/>
      <point x="64" y="1152"/>
      <point x="64" y="1152" type="curve"/>
    </contour>
  </outline>
</glyph>
<glyph name="a" format="1">
  <advance width="1040.0"/>
  <unicode hex="0061"/>
  <outline>
    <contour>
      <point x="656" y="304" type="curve"/>
      <point x="560" y="352" type="line"/>
      <point x="560" y="304"/>
      <point x="544" y="256"/>
      <point x="488" y="256" type="curve"/>
      <point x="432" y="256"/>
      <point x="416" y="304"/>
      <point x="416" y="352" type="curve"/>
      <point x="416" y="400"/>
      <point x="432" y="448"/>
      <point x="488" y="448" type="curve" smooth="yes"/>
      <point x="552" y="448"/>
      <point x="600" y="448"/>
      <point x="640" y="448" type="curve"/>
      <point x="640" y="640" type="line"/>
      <point x="576" y="640"/>
      <point x="448" y="640"/>
      <point x="384" y="640" type="curve" smooth="yes"/>
      <point x="160" y="640"/>
      <point x="64" y="496"/>
      <point x="64" y="320" type="curve"/>
      <point x="64" y="144"/>
      <point x="160" y="-32"/>
      <point x="384" y="-32" type="curve"/>
      <point x="544" y="-32"/>
      <point x="656" y="128"/>
    </contour>
    <contour>
      <point x="960" y="0" type="line"/>
      <point x="960" y="608" type="line"/>
      <point x="960" y="896"/>
      <point x="752" y="1056"/>
      <point x="480" y="1056" type="curve"/>
      <point x="320" y="1056"/>
      <point x="208" y="992"/>
      <point x="160" y="944" type="curve"/>
      <point x="160" y="704" type="line"/>
      <point x="224" y="736"/>
      <point x="320" y="752"/>
      <point x="384" y="752" type="curve"/>
      <point x="512" y="752"/>
      <point x="560" y="704"/>
      <point x="560" y="640" type="curve"/>
      <point x="560" y="128" type="line"/>
      <point x="592" y="128" type="line"/>
      <point x="656" y="0" type="line"/>
    </contour>
  </outline>
</glyph>
<glyph name="b" format="1">
  <advance width="1104"/>
  <unicode hex="0062"/>
  <outline>
    <contour>
      <point x="1040" y="704" type="line"/>
      <point x="1040" y="928"/>
      <point x="872" y="1056"/>
      <point x="712" y="1056" type="curve"/>
      <point x="488" y="1056"/>
      <point x="392" y="880"/>
      <point x="392" y="704" type="curve"/>
      <point x="496" y="672" type="line"/>
      <point x="496" y="720"/>
      <point x="520" y="752"/>
      <point x="568" y="752" type="curve"/>
      <point x="616" y="752"/>
      <point x="640" y="720"/>
      <point x="640" y="672" type="curve"/>
      <point x="640" y="352" type="line"/>
      <point x="640" y="304"/>
      <point x="616" y="272"/>
      <point x="568" y="272" type="curve"/>
      <point x="520" y="272"/>
      <point x="496" y="304"/>
      <point x="496" y="352" type="curve"/>
      <point x="392" y="320" type="line"/>
      <point x="392" y="144"/>
      <point x="488" y="-32"/>
      <point x="712" y="-32" type="curve"/>
      <point x="872" y="-32"/>
      <point x="1040" y="96"/>
      <point x="1040" y="320" type="curve"/>
    </contour>
    <contour>
      <point x="496" y="1536" type="curve"/>
      <point x="96" y="1472" type="line"/>
      <point x="96" y="0" type="line"/>
      <point x="96" y="0"/>
      <point x="392" y="0"/>
      <point x="392" y="0" type="curve"/>
      <point x="456" y="128" type="line"/>
      <point x="496" y="128" type="line"/>
      <point x="496" y="128"/>
      <point x="496" y="1536"/>
    </contour>
  </outline>
</glyph>
<glyph name="c" format="1">
  <advance width="800"/>
  <unicode hex="0063"/>
  <outline>
    <contour>
      <point x="64" y="640" type="curve"/>
      <point x="64" y="384" type="line"/>
      <point x="64" y="128"/>
      <point x="272" y="-32"/>
      <point x="544" y="-32" type="curve"/>
      <point x="640" y="-32"/>
      <point x="720" y="0"/>
      <point x="752" y="16" type="curve"/>
      <point x="752" y="320" type="line"/>
      <point x="704" y="288"/>
      <point x="672" y="272"/>
      <point x="608" y="272" type="curve"/>
      <point x="512" y="272"/>
      <point x="464" y="320"/>
      <point x="464" y="416" type="curve"/>
      <point x="464" y="608" type="line"/>
      <point x="464" y="704"/>
      <point x="512" y="752"/>
      <point x="608" y="752" type="curve"/>
      <point x="672" y="752"/>
      <point x="704" y="736"/>
      <point x="752" y="704" type="curve"/>
      <point x="752" y="1008" type="line"/>
      <point x="720" y="1024"/>
      <point x="640" y="1056"/>
      <point x="544" y="1056" type="curve"/>
      <point x="272" y="1056"/>
      <point x="64" y="896"/>
    </contour>
  </outline>
</glyph>
<glyph name="e" format="1">
  <advance width="992"/>
  <unicode hex="0065"/>
  <outline>
    <contour>
      <point x="544" y="-32" type="curve"/>
      <point x="704" y="-32"/>
      <point x="816" y="32"/>
      <point x="864" y="80" type="curve"/>
      <point x="864" y="320" type="line"/>
      <point x="800" y="288"/>
      <point x="704" y="272"/>
      <point x="608" y="272" type="curve"/>
      <point x="512" y="272"/>
      <point x="464" y="320"/>
      <point x="464" y="416" type="curve" smooth="yes"/>
      <point x="464" y="656" type="line" smooth="yes"/>
      <point x="464" y="704"/>
      <point x="472" y="752"/>
      <point x="536" y="752" type="curve"/>
      <point x="600" y="752"/>
      <point x="608" y="704"/>
      <point x="608" y="656" type="curve" smooth="yes"/>
      <point x="608" y="608" type="line"/>
      <point x="320" y="608" type="line"/>
      <point x="320" y="416" type="line"/>
      <point x="928" y="416" type="line"/>
      <point x="928" y="640" type="line"/>
      <point x="928" y="896"/>
      <point x="792" y="1056"/>
      <point x="536" y="1056" type="curve"/>
      <point x="280" y="1056"/>
      <point x="64" y="896"/>
      <point x="64" y="640" type="curve"/>
      <point x="64" y="384" type="line"/>
      <point x="64" y="128"/>
      <point x="272" y="-32"/>
    </contour>
  </outline>
</glyph>
<glyph name="f" format="1">
  <advance width="720"/>
  <unicode hex="0066"/>
  <outline>
    <contour>
      <point x="128" y="1120" type="curve"/>
      <point x="128" y="1024" type="line"/>
      <point x="32" y="1024" type="line"/>
      <point x="32" y="704" type="line"/>
      <point x="128" y="704" type="line"/>
      <point x="128" y="0" type="line"/>
      <point x="528" y="0" type="line"/>
      <point x="528" y="704" type="line"/>
      <point x="688" y="704" type="line"/>
      <point x="688" y="1024" type="line"/>
      <point x="528" y="1024" type="line"/>
      <point x="528" y="1088" type="line"/>
      <point x="528" y="1168"/>
      <point x="552" y="1216"/>
      <point x="600" y="1216" type="curve"/>
      <point x="632" y="1216"/>
      <point x="672" y="1208"/>
      <point x="688" y="1200" type="curve"/>
      <point x="688" y="1472" type="line"/>
      <point x="656" y="1488"/>
      <point x="568" y="1504"/>
      <point x="488" y="1504" type="curve"/>
      <point x="264" y="1504"/>
      <point x="128" y="1376"/>
    </contour>
  </outline>
</glyph>
<glyph name="g" format="1">
  <advance width="1104"/>
  <unicode hex="0067"/>
  <outline>
    <contour>
      <point x="64" y="352" type="line"/>
      <point x="64" y="128"/>
      <point x="232" y="0"/>
      <point x="392" y="0" type="curve"/>
      <point x="616" y="0"/>
      <point x="712" y="144"/>
      <point x="712" y="320" type="curve"/>
      <point x="608" y="352" type="line"/>
      <point x="608" y="304"/>
      <point x="584" y="272"/>
      <point x="536" y="272" type="curve"/>
      <point x="488" y="272"/>
      <point x="464" y="304"/>
      <point x="464" y="352" type="curve"/>
      <point x="464" y="672" type="line"/>
      <point x="464" y="720"/>
      <point x="488" y="752"/>
      <point x="536" y="752" type="curve"/>
      <point x="584" y="752"/>
      <point x="608" y="720"/>
      <point x="608" y="672" type="curve"/>
      <point x="712" y="704" type="line"/>
      <point x="712" y="880"/>
      <point x="616" y="1056"/>
      <point x="392" y="1056" type="curve"/>
      <point x="232" y="1056"/>
      <point x="64" y="928"/>
      <point x="64" y="704" type="curve"/>
    </contour>
    <contour>
      <point x="608" y="-32" type="line"/>
      <point x="608" y="-96"/>
      <point x="544" y="-144"/>
      <point x="416" y="-144" type="curve"/>
      <point x="352" y="-144"/>
      <point x="224" y="-128"/>
      <point x="160" y="-96" type="curve"/>
      <point x="160" y="-336" type="line"/>
      <point x="208" y="-384"/>
      <point x="352" y="-448"/>
      <point x="512" y="-448" type="curve"/>
      <point x="784" y="-448"/>
      <point x="1008" y="-288"/>
      <point x="1008" y="0" type="curve"/>
      <point x="1008" y="1024" type="line"/>
      <point x="712" y="1024" type="line"/>
      <point x="648" y="896" type="line"/>
      <point x="608" y="896" type="line"/>
    </contour>
  </outline>
</glyph>
<glyph name="h" format="1">
  <advance width="1120.0"/>
  <unicode hex="0068"/>
  <outline>
    <contour>
      <point x="1040" y="0" type="line"/>
      <point x="1040" y="704" type="line"/>
      <point x="1040" y="928"/>
      <point x="872" y="1056"/>
      <point x="712" y="1056" type="curve"/>
      <point x="488" y="1056"/>
      <point x="392" y="880"/>
      <point x="392" y="704" type="curve"/>
      <point x="496" y="672" type="line"/>
      <point x="496" y="720"/>
      <point x="520" y="752"/>
      <point x="568" y="752" type="curve"/>
      <point x="616" y="752"/>
      <point x="640" y="720"/>
      <point x="640" y="672" type="curve"/>
      <point x="640" y="0" type="line"/>
    </contour>
    <contour>
      <point x="496" y="0" type="line"/>
      <point x="496" y="0"/>
      <point x="496" y="1536"/>
      <point x="496" y="1536" type="curve"/>
      <point x="96" y="1472" type="line"/>
      <point x="96" y="0" type="line"/>
    </contour>
  </outline>
</glyph>
<glyph name="j" format="1">
  <advance width="592"/>
  <unicode hex="006A"/>
  <outline>
    <contour>
      <point x="496" y="1152" type="line"/>
      <point x="496" y="1472" type="line"/>
      <point x="96" y="1472" type="line"/>
      <point x="96" y="1152" type="line"/>
    </contour>
    <contour>
      <point x="496" y="-384" type="curve"/>
      <point x="496" y="1024" type="line"/>
      <point x="96" y="1024" type="line"/>
      <point x="96" y="-448" type="line"/>
      <point x="96" y="-448"/>
      <point x="496" y="-384"/>
    </contour>
  </outline>
</glyph>
<glyph name="l" format="1">
  <advance width="592"/>
  <unicode hex="006C"/>
  <outline>
    <contour>
      <point x="496" y="0" type="curve"/>
      <point x="496" y="1536" type="line"/>
      <point x="496" y="1536"/>
      <point x="96" y="1472"/>
      <point x="96" y="1472" type="curve"/>
      <point x="96" y="0" type="line"/>
      <point x="96" y="0"/>
      <point x="496" y="0"/>
    </contour>
  </outline>
</glyph>
<glyph name="m" format="1">
  <advance width="1664"/>
  <unicode hex="006D"/>
  <outline>
    <contour>
      <point x="1584" y="0" type="line"/>
      <point x="1584" y="704" type="line"/>
      <point x="1584" y="928"/>
      <point x="1416" y="1056"/>
      <point x="1256" y="1056" type="curve"/>
      <point x="1032" y="1056"/>
      <point x="936" y="880"/>
      <point x="936" y="704" type="curve"/>
      <point x="1040" y="672" type="line"/>
      <point x="1040" y="720"/>
      <point x="1064" y="752"/>
      <point x="1112" y="752" type="curve"/>
      <point x="1160" y="752"/>
      <point x="1184" y="720"/>
      <point x="1184" y="672" type="curve"/>
      <point x="1184" y="0" type="line"/>
    </contour>
    <contour>
      <point x="496" y="0" type="line"/>
      <point x="496" y="0"/>
      <point x="496" y="896"/>
      <point x="496" y="896" type="curve"/>
      <point x="456" y="896" type="line"/>
      <point x="392" y="1024" type="line"/>
      <point x="392" y="1024"/>
      <point x="96" y="1024"/>
      <point x="96" y="1024" type="curve"/>
      <point x="96" y="0" type="line"/>
    </contour>
    <contour>
      <point x="1040" y="0" type="line"/>
      <point x="1040" y="704" type="line"/>
      <point x="1040" y="928"/>
      <point x="872" y="1056"/>
      <point x="712" y="1056" type="curve"/>
      <point x="488" y="1056"/>
      <point x="392" y="880"/>
      <point x="392" y="704" type="curve"/>
      <point x="496" y="672" type="line"/>
      <point x="496" y="720"/>
      <point x="520" y="752"/>
      <point x="568" y="752" type="curve"/>
      <point x="616" y="752"/>
      <point x="640" y="720"/>
      <point x="640" y="672" type="curve"/>
      <point x="640" y="0" type="line"/>
    </contour>
  </outline>
</glyph>
<glyph name="n" format="1">
  <advance width="1120.0"/>
  <unicode hex="006E"/>
  <outline>
    <contour>
      <point x="496.0" y="0" type="line"/>
      <point x="496.0" y="0"/>
      <point x="496.0" y="896"/>
      <point x="496.0" y="896" type="curve"/>
      <point x="456.0" y="896" type="line"/>
      <point x="392.0" y="1024" type="line"/>
      <point x="392.0" y="1024"/>
      <point x="96.0" y="1024"/>
      <point x="96.0" y="1024" type="curve"/>
      <point x="96.0" y="0" type="line"/>
    </contour>
    <contour>
      <point x="1040.0" y="0" type="line"/>
      <point x="1040.0" y="704" type="line"/>
      <point x="1040.0" y="928"/>
      <point x="872.0" y="1056"/>
      <point x="712.0" y="1056" type="curve"/>
      <point x="488.0" y="1056"/>
      <point x="392.0" y="880"/>
      <point x="392.0" y="704" type="curve"/>
      <point x="496.0" y="672" type="line"/>
      <point x="496.0" y="720"/>
      <point x="520.0" y="752"/>
      <point x="568.0" y="752" type="curve"/>
      <point x="616.0" y="752"/>
      <point x="640.0" y="720"/>
      <point x="640.0" y="672" type="curve"/>
      <point x="640.0" y="0" type="line"/>
    </contour>
  </outline>
</glyph>
<glyph name="o" format="1">
  <advance width="1072"/>
  <unicode hex="006F"/>
  <outline>
    <contour>
      <point x="536" y="272" type="curve"/>
      <point x="600" y="272"/>
      <point x="608" y="320"/>
      <point x="608" y="368" type="curve" smooth="yes"/>
      <point x="608" y="656" type="line" smooth="yes"/>
      <point x="608" y="704"/>
      <point x="600" y="752"/>
      <point x="536" y="752" type="curve"/>
      <point x="472" y="752"/>
      <point x="464" y="704"/>
      <point x="464" y="656" type="curve" smooth="yes"/>
      <point x="464" y="368" type="line" smooth="yes"/>
      <point x="464" y="320"/>
      <point x="472" y="272"/>
    </contour>
    <contour>
      <point x="536" y="-32" type="curve"/>
      <point x="280" y="-32"/>
      <point x="64" y="128"/>
      <point x="64" y="384" type="curve"/>
      <point x="64" y="640" type="line"/>
      <point x="64" y="896"/>
      <point x="280" y="1056"/>
      <point x="536" y="1056" type="curve"/>
      <point x="792" y="1056"/>
      <point x="1008" y="896"/>
      <point x="1008" y="640" type="curve"/>
      <point x="1008" y="384" type="line"/>
      <point x="1008" y="128"/>
      <point x="792" y="-32"/>
    </contour>
  </outline>
</glyph>
<glyph name="p" format="1">
  <advance width="1104.0"/>
  <unicode hex="0070"/>
  <outline>
    <contour>
      <point x="1040.0" y="320.0" type="curve"/>
      <point x="1040.0" y="704.0" type="line"/>
      <point x="1040.0" y="928.0"/>
      <point x="872.0" y="1056.0"/>
      <point x="712.0" y="1056.0" type="curve"/>
      <point x="488.0" y="1056.0"/>
      <point x="392.0" y="880.0"/>
      <point x="392.0" y="704.0" type="curve"/>
      <point x="496.0" y="672.0" type="line"/>
      <point x="496.0" y="720.0"/>
      <point x="520.0" y="752.0"/>
      <point x="568.0" y="752.0" type="curve"/>
      <point x="616.0" y="752.0"/>
      <point x="640.0" y="720.0"/>
      <point x="640.0" y="672.0" type="curve"/>
      <point x="640.0" y="352.0" type="line"/>
      <point x="640.0" y="304.0"/>
      <point x="616.0" y="272.0"/>
      <point x="568.0" y="272.0" type="curve"/>
      <point x="520.0" y="272.0"/>
      <point x="496.0" y="304.0"/>
      <point x="496.0" y="352.0" type="curve"/>
      <point x="392.0" y="320.0" type="line"/>
      <point x="392.0" y="144.0"/>
      <point x="488.0" y="-32.0"/>
      <point x="712.0" y="-32.0" type="curve"/>
      <point x="872.0" y="-32.0"/>
      <point x="1040.0" y="96.0"/>
    </contour>
    <contour>
      <point x="496.0" y="-384" type="line"/>
      <point x="496.0" y="-384"/>
      <point x="496.0" y="896.0"/>
      <point x="496.0" y="896.0" type="curve"/>
      <point x="456.0" y="896.0" type="line"/>
      <point x="392.0" y="1024.0" type="line"/>
      <point x="392.0" y="1024.0"/>
      <point x="96.0" y="1024.0"/>
      <point x="96.0" y="1024.0" type="curve"/>
      <point x="96.0" y="-448" type="line"/>
    </contour>
  </outline>
</glyph>
<glyph name="q" format="1">
  <advance width="1104"/>
  <unicode hex="0071"/>
  <outline>
    <contour>
      <point x="64" y="320" type="line"/>
      <point x="64" y="96"/>
      <point x="232" y="-32"/>
      <point x="392" y="-32" type="curve"/>
      <point x="616" y="-32"/>
      <point x="712" y="144"/>
      <point x="712" y="320" type="curve"/>
      <point x="608" y="352" type="line"/>
      <point x="608" y="304"/>
      <point x="584" y="272"/>
      <point x="536" y="272" type="curve"/>
      <point x="488" y="272"/>
      <point x="464" y="304"/>
      <point x="464" y="352" type="curve"/>
      <point x="464" y="672" type="line"/>
      <point x="464" y="720"/>
      <point x="488" y="752"/>
      <point x="536" y="752" type="curve"/>
      <point x="584" y="752"/>
      <point x="608" y="720"/>
      <point x="608" y="672" type="curve"/>
      <point x="712" y="704" type="line"/>
      <point x="712" y="880"/>
      <point x="616" y="1056"/>
      <point x="392" y="1056" type="curve"/>
      <point x="232" y="1056"/>
      <point x="64" y="928"/>
      <point x="64" y="704" type="curve"/>
    </contour>
    <contour>
      <point x="608" y="-448" type="curve"/>
      <point x="1008" y="-384" type="line"/>
      <point x="1008" y="1024" type="line"/>
      <point x="1008" y="1024"/>
      <point x="712" y="1024"/>
      <point x="712" y="1024" type="curve"/>
      <point x="648" y="896" type="line"/>
      <point x="608" y="896" type="line"/>
      <point x="608" y="896"/>
      <point x="608" y="-448"/>
    </contour>
  </outline>
</glyph>
<glyph name="r" format="1">
  <advance width="864.0"/>
  <unicode hex="0072"/>
  <outline>
    <contour>
      <point x="496.0" y="0.0" type="line"/>
      <point x="496.0" y="0.0"/>
      <point x="496.0" y="896.0"/>
      <point x="496.0" y="896.0" type="curve"/>
      <point x="456.0" y="896.0" type="line"/>
      <point x="392.0" y="1024.0" type="line"/>
      <point x="392.0" y="1024.0"/>
      <point x="96.0" y="1024.0"/>
      <point x="96.0" y="1024.0" type="curve"/>
      <point x="96.0" y="0.0" type="line"/>
    </contour>
    <contour>
      <point x="832" y="1008" type="line"/>
      <point x="800" y="1040"/>
      <point x="736.0" y="1056"/>
      <point x="712.0" y="1056.0" type="curve"/>
      <point x="488.0" y="1056.0"/>
      <point x="392.0" y="880.0"/>
      <point x="392.0" y="704.0" type="curve"/>
      <point x="496.0" y="576" type="line"/>
      <point x="496.0" y="704"/>
      <point x="576.0" y="752"/>
      <point x="672.0" y="752" type="curve"/>
      <point x="768.0" y="752"/>
      <point x="800" y="736"/>
      <point x="832" y="720" type="curve"/>
    </contour>
  </outline>
</glyph>
<glyph name="s" format="1">
  <advance width="736"/>
  <unicode hex="0073"/>
  <outline>
    <contour>
      <point x="592.0" y="512.0" type="curve" smooth="yes"/>
      <point x="528.0" y="576.0" type="line" smooth="yes"/>
      <point x="488.0" y="616.0"/>
      <point x="448" y="656"/>
      <point x="448" y="688" type="curve" smooth="yes"/>
      <point x="448" y="728"/>
      <point x="464.0" y="752.0"/>
      <point x="528.0" y="752.0" type="curve" smooth="yes"/>
      <point x="560.0" y="752.0"/>
      <point x="624.0" y="736.0"/>
      <point x="656.0" y="720.0" type="curve"/>
      <point x="656.0" y="1008.0" type="line"/>
      <point x="624.0" y="1024.0"/>
      <point x="560.0" y="1056.0"/>
      <point x="432.0" y="1056.0" type="curve" smooth="yes"/>
      <point x="176.0" y="1056.0"/>
      <point x="64" y="928"/>
      <point x="64" y="736" type="curve" smooth="yes"/>
      <point x="64" y="640"/>
      <point x="136" y="552"/>
      <point x="176" y="512" type="curve" smooth="yes"/>
      <point x="240" y="448" type="line" smooth="yes"/>
      <point x="272" y="416"/>
      <point x="288" y="384"/>
      <point x="288" y="352" type="curve" smooth="yes"/>
      <point x="288" y="288"/>
      <point x="240" y="272"/>
      <point x="208" y="272" type="curve" smooth="yes"/>
      <point x="144" y="272"/>
      <point x="128.0" y="288.0"/>
      <point x="80.0" y="304.0" type="curve"/>
      <point x="80.0" y="16.0" type="line"/>
      <point x="144.0" y="0.0"/>
      <point x="240.0" y="-32.0"/>
      <point x="320.0" y="-32.0" type="curve" smooth="yes"/>
      <point x="560.0" y="-32.0"/>
      <point x="672" y="128"/>
      <point x="672" y="320" type="curve" smooth="yes"/>
      <point x="672" y="416"/>
      <point x="620.0" y="484.0"/>
    </contour>
  </outline>
</glyph>
<glyph name="t" format="1">
  <advance width="720"/>
  <unicode hex="0074"/>
  <outline>
    <contour>
      <point x="528" y="0" type="line"/>
      <point x="528" y="704" type="line"/>
      <point x="688" y="704" type="line"/>
      <point x="688" y="1024" type="line"/>
      <point x="528" y="1024" type="line"/>
      <point x="528" y="1280" type="line"/>
      <point x="528" y="1280"/>
      <point x="128" y="1216"/>
      <point x="128" y="1216" type="curve"/>
      <point x="128" y="1024" type="line"/>
      <point x="32" y="1024" type="line"/>
      <point x="32" y="704" type="line"/>
      <point x="128" y="704" type="line"/>
      <point x="128" y="0" type="line"/>
    </contour>
  </outline>
</glyph>
<glyph name="u" format="1">
  <advance width="1120"/>
  <unicode hex="0075"/>
  <outline>
    <contour>
      <point x="624" y="1024" type="line"/>
      <point x="624" y="1024"/>
      <point x="624" y="128"/>
      <point x="624" y="128" type="curve"/>
      <point x="664" y="128" type="line"/>
      <point x="728" y="0" type="line"/>
      <point x="728" y="0"/>
      <point x="1024" y="0"/>
      <point x="1024" y="0" type="curve"/>
      <point x="1024" y="1024" type="line"/>
    </contour>
    <contour>
      <point x="80" y="1024" type="line"/>
      <point x="80" y="320" type="line"/>
      <point x="80" y="96"/>
      <point x="248" y="-32"/>
      <point x="408" y="-32" type="curve"/>
      <point x="632" y="-32"/>
      <point x="728" y="144"/>
      <point x="728" y="320" type="curve"/>
      <point x="624" y="352" type="line"/>
      <point x="624" y="304"/>
      <point x="600" y="272"/>
      <point x="552" y="272" type="curve"/>
      <point x="504" y="272"/>
      <point x="480" y="304"/>
      <point x="480" y="352" type="curve"/>
      <point x="480" y="1024" type="line"/>
    </contour>
  </outline>
</glyph>
<glyph name="w" format="1">
  <advance width="1472"/>
  <unicode hex="0077"/>
  <outline>
    <contour>
      <point x="1152" y="0" type="line"/>
      <point x="976" y="1024" type="line"/>
      <point x="624" y="1024" type="line"/>
      <point x="800" y="0" type="line"/>
    </contour>
    <contour>
      <point x="992" y="0" type="line"/>
      <point x="1216" y="0" type="line"/>
      <point x="1440" y="1024" type="line"/>
      <point x="1152" y="1024" type="line"/>
    </contour>
    <contour>
      <point x="608" y="0" type="line"/>
      <point x="448" y="1024" type="line"/>
      <point x="32" y="1024" type="line"/>
      <point x="256" y="0" type="line"/>
    </contour>
    <contour>
      <point x="416" y="0" type="line"/>
      <point x="672" y="0" type="line"/>
      <point x="848" y="1024" type="line"/>
      <point x="624" y="1024" type="line"/>
    </contour>
  </outline>
</glyph>
<glyph name="y" format="1">
  <advance width="1056.0"/>
  <unicode hex="0079"/>
  <outline>
    <contour>
      <point x="608.0" y="0.0" type="line"/>
      <point x="448.0" y="1024.0" type="line"/>
      <point x="32.0" y="1024.0" type="line"/>
      <point x="256.0" y="0.0" type="line"/>
    </contour>
    <contour>
      <point x="352" y="-448" type="line"/>
      <point x="716" y="-384" type="line"/>
      <point x="1024.0" y="1024.0" type="line"/>
      <point x="640.0" y="1024.0" type="line"/>
      <point x="544.0" y="404.0" type="line"/>
      <point x="528.0" y="404.0" type="line"/>
    </contour>
  </outline>
</glyph>
<glyph name="z" format="1">
  <advance width="864"/>
  <unicode hex="007A"/>
  <outline>
    <contour>
      <point x="800" y="0" type="line"/>
      <point x="800" y="320" type="line"/>
      <point x="512" y="320" type="line"/>
      <point x="512" y="320"/>
      <point x="800" y="768"/>
      <point x="800" y="768" type="curve"/>
      <point x="800" y="768"/>
      <point x="800" y="1024"/>
      <point x="800" y="1024" type="curve"/>
      <point x="64" y="1024" type="line"/>
      <point x="64" y="704" type="line"/>
      <point x="356" y="704" type="line"/>
      <point x="356" y="704"/>
      <point x="64" y="256"/>
      <point x="64" y="256" type="curve"/>
      <point x="64" y="256"/>
      <point x="64" y="0"/>
      <point x="64" y="0" type="curve"/>
    </contour>
  </outline>
</glyph>
<glyph name="copyright" format="1">
  <advance width="1888"/>
  <unicode hex="00A9"/>
  <outline>
    <contour>
      <point x="1248" y="352" type="curve"/>
      <point x="1248" y="512" type="line"/>
      <point x="1216" y="544" type="line"/>
      <point x="1152" y="512"/>
      <point x="1120.0" y="480.0"/>
      <point x="1040.0" y="480.0" type="curve"/>
      <point x="864.0" y="480.0"/>
      <point x="800.0" y="592.0"/>
      <point x="800.0" y="768.0" type="curve"/>
      <point x="800.0" y="832.0" type="line"/>
      <point x="800.0" y="1008.0"/>
      <point x="864.0" y="1120.0"/>
      <point x="1040.0" y="1120.0" type="curve"/>
      <point x="1120.0" y="1120.0"/>
      <point x="1152" y="1088"/>
      <point x="1216" y="1056" type="curve"/>
      <point x="1248" y="1088" type="line"/>
      <point x="1248" y="1248" type="line"/>
      <point x="1216" y="1280"/>
      <point x="1136" y="1344"/>
      <point x="1040.0" y="1344.0" type="curve"/>
      <point x="720.0" y="1344.0"/>
      <point x="544.0" y="1152.0"/>
      <point x="544.0" y="832.0" type="curve"/>
      <point x="544.0" y="768.0" type="line"/>
      <point x="544.0" y="448.0"/>
      <point x="720.0" y="256.0"/>
      <point x="1040.0" y="256.0" type="curve"/>
      <point x="1136" y="256"/>
      <point x="1216" y="320"/>
    </contour>
    <contour>
      <point x="960.0" y="128.0" type="curve"/>
      <point x="648.0" y="128.0"/>
      <point x="384.0" y="384.0"/>
      <point x="384.0" y="800.0" type="curve"/>
      <point x="384.0" y="1216.0"/>
      <point x="648.0" y="1472.0"/>
      <point x="960.0" y="1472.0" type="curve"/>
      <point x="1272.0" y="1472.0"/>
      <point x="1536.0" y="1216.0"/>
      <point x="1536.0" y="800.0" type="curve"/>
      <point x="1536.0" y="384.0"/>
      <point x="1272.0" y="128.0"/>
    </contour>
    <contour>
      <point x="960.0" y="-32.0" type="curve"/>
      <point x="1368.0" y="-32.0"/>
      <point x="1712.0" y="288.0"/>
      <point x="1712.0" y="800.0" type="curve"/>
      <point x="1712.0" y="1312.0"/>
      <point x="1368.0" y="1632.0"/>
      <point x="960.0" y="1632.0" type="curve"/>
      <point x="552.0" y="1632.0"/>
      <point x="208.0" y="1312.0"/>
      <point x="208.0" y="800.0" type="curve"/>
      <point x="208.0" y="288.0"/>
      <point x="552.0" y="-32.0"/>
    </contour>
  </outline>
</glyph>
<glyph name="emdash" format="1">
  <advance width="1680.0"/>
  <unicode hex="2014"/>
  <outline>
    <contour>
      <point x="1512" y="768" type="line"/>
      <point x="168" y="768" type="line"/>
      <point x="168" y="528" type="line"/>
      <point x="1512" y="528" type="line"/>
    </contour>
  </outline>
</glyph>
<glyph name="quoteright" format="1">
  <advance width="500"/>
  <unicode hex="2019"/>
  <outline>
    <contour>
      <point x="432" y="832" type="line"/>
      <point x="432" y="1472" type="line"/>
      <point x="80" y="1472" type="line"/>
      <point x="80" y="768" type="line"/>
    </contour>
  </outline>
</glyph>
<glyph name="quotedblleft" format="1">
  <advance width="1088"/>
  <unicode hex="201C"/>
  <outline>
    <contour>
      <point x="992" y="1536" type="line"/>
      <point x="640" y="1472" type="line"/>
      <point x="640" y="832" type="line"/>
      <point x="992" y="832" type="line"/>
    </contour>
    <contour>
      <point x="448" y="1536" type="line"/>
      <point x="96" y="1472" type="line"/>
      <point x="96" y="832" type="line"/>
      <point x="448" y="832" type="line"/>
    </contour>
  </outline>
</glyph>
<glyph name="Q.alt001" format="1">
  <advance width="1152.0"/>
  <outline>
    <contour>
      <point x="768" y="-320" type="curve"/>
      <point x="768" y="192" type="line"/>
      <point x="384" y="192" type="line"/>
      <point x="384" y="-384" type="line"/>
      <point x="384" y="-384"/>
      <point x="768" y="-320"/>
    </contour>
    <contour>
      <point x="1088.0" y="544.0" type="curve"/>
      <point x="1088.0" y="928.0" type="line"/>
      <point x="1088.0" y="1312.0"/>
      <point x="896.0" y="1504.0"/>
      <point x="576.0" y="1504.0" type="curve"/>
      <point x="256.0" y="1504.0"/>
      <point x="64.0" y="1312.0"/>
      <point x="64.0" y="928.0" type="curve"/>
      <point x="64.0" y="544.0" type="line"/>
      <point x="64.0" y="160.0"/>
      <point x="256.0" y="-32.0"/>
      <point x="576.0" y="-32.0" type="curve"/>
      <point x="900" y="-32"/>
      <point x="1088" y="160"/>
    </contour>
    <contour>
      <point x="672.0" y="1072.0" type="curve"/>
      <point x="672.0" y="400.0" type="line"/>
      <point x="672.0" y="344.0"/>
      <point x="632.0" y="304.0"/>
      <point x="576.0" y="304.0" type="curve"/>
      <point x="520.0" y="304.0"/>
      <point x="480.0" y="344.0"/>
      <point x="480.0" y="400.0" type="curve"/>
      <point x="480.0" y="1072.0" type="line"/>
      <point x="480.0" y="1128.0"/>
      <point x="520.0" y="1168.0"/>
      <point x="576.0" y="1168.0" type="curve"/>
      <point x="632.0" y="1168.0"/>
      <point x="672.0" y="1128.0"/>
    </contour>
  </outline>
</glyph>
<glyph name="t_t" format="1">
  <advance width="1456"/>
  <outline>
    <contour>
      <point x="1264" y="0" type="line"/>
      <point x="1264" y="704" type="line"/>
      <point x="1424" y="704" type="line"/>
      <point x="1424" y="1024" type="line"/>
      <point x="1264" y="1024" type="line"/>
      <point x="1264" y="1280" type="line"/>
      <point x="1264" y="1280"/>
      <point x="864" y="1216"/>
      <point x="864" y="1216" type="curve"/>
      <point x="864" y="1024" type="line"/>
      <point x="768" y="1024" type="line"/>
      <point x="768" y="704" type="line"/>
      <point x="864" y="704" type="line"/>
      <point x="864" y="0" type="line"/>
    </contour>
    <contour>
      <point x="528.0" y="0.0" type="line"/>
      <point x="528.0" y="704.0" type="line"/>
      <point x="768" y="704" type="line"/>
      <point x="768" y="1024" type="line"/>
      <point x="528.0" y="1024.0" type="line"/>
      <point x="528.0" y="1280.0" type="line"/>
      <point x="528.0" y="1280.0"/>
      <point x="128" y="1216"/>
      <point x="128" y="1216" type="curve"/>
      <point x="128.0" y="1024.0" type="line"/>
      <point x="32.0" y="1024.0" type="line"/>
      <point x="32.0" y="704.0" type="line"/>
      <point x="128.0" y="704.0" type="line"/>
      <point x="128.0" y="0.0" type="line"/>
    </contour>
  </outline>
</glyph>
